<?xml version="1.0" encoding="UTF-8"?>
<!DOCTYPE svg PUBLIC "-//W3C//DTD SVG 1.1//EN" "http://www.w3.org/Graphics/SVG/1.1/DTD/svg11.dtd">
<svg xmlns="http://www.w3.org/2000/svg" version="1.1" width="2275px" height="2299px" style="shape-rendering:geometricPrecision; text-rendering:geometricPrecision; image-rendering:optimizeQuality; fill-rule:evenodd; clip-rule:evenodd" xmlns:xlink="http://www.w3.org/1999/xlink">
<g><path style="opacity:0.999" fill="#fefefe" d="M 793.5,105.5 C 798.373,112.742 803.373,119.909 808.5,127C 805.362,130.466 801.862,133.633 798,136.5C 797.685,137.908 798.018,139.241 799,140.5C 830.363,182.018 861.863,223.351 893.5,264.5C 900.407,275.075 908.074,285.075 916.5,294.5C 929.525,284.308 942.691,274.308 956,264.5C 1071.88,416.716 1187.38,569.216 1302.5,722C 1301.58,722.278 1300.92,722.778 1300.5,723.5C 1287.82,733.169 1275.16,742.836 1262.5,752.5C 1306.51,811.858 1351.01,870.858 1396,929.5C 1404.52,941.63 1406.85,954.963 1403,969.5C 1395.46,990.753 1383.29,1008.92 1366.5,1024C 1341.5,1047 1312.5,1063 1279.5,1072C 1264.75,1076.2 1250.42,1075.2 1236.5,1069C 1232.54,1066.77 1229.04,1063.93 1226,1060.5C 1181,1000.83 1136,941.167 1091,881.5C 1078.26,891.455 1065.42,901.288 1052.5,911C 1051.5,911.667 1050.5,911.667 1049.5,911C 1010.17,859 970.833,807 931.5,755C 930.833,754.333 930.167,754.333 929.5,755C 898.076,790.984 858.409,807.151 810.5,803.5C 794.029,801.604 778.362,796.937 763.5,789.5C 714.928,829.225 674.094,875.558 641,928.5C 547.999,1081.54 519.666,1245.88 556,1421.5C 589.628,1549.74 661.795,1649.91 772.5,1722C 852.911,1771.11 940.244,1798.27 1034.5,1803.5C 1030.64,1788.93 1025.98,1774.59 1020.5,1760.5C 1311.81,1659.17 1603.48,1558.84 1895.5,1459.5C 1905.64,1490.57 1915.97,1521.57 1926.5,1552.5C 1848.18,1578.66 1770.02,1605.33 1692,1632.5C 1701.6,1727.74 1670.77,1806.91 1599.5,1870C 1610.38,1886.93 1621.38,1903.76 1632.5,1920.5C 1664.32,1969.47 1696.16,2018.47 1728,2067.5C 1728.88,2069.64 1730.38,2070.97 1732.5,2071.5C 1748.52,2097.7 1765.19,2123.53 1782.5,2149C 1819.83,2149.5 1857.17,2149.67 1894.5,2149.5C 1894.5,2185.17 1894.5,2220.83 1894.5,2256.5C 1656.83,2256.5 1419.17,2256.5 1181.5,2256.5C 1138.17,2255.17 1094.83,2255.17 1051.5,2256.5C 1031.17,2256.5 1010.83,2256.5 990.5,2256.5C 990.5,2254.5 990.5,2252.5 990.5,2250.5C 991.498,2217.34 991.832,2184 991.5,2150.5C 1009.85,2150.83 1028.18,2150.5 1046.5,2149.5C 1058.18,2125.47 1069.85,2101.47 1081.5,2077.5C 1093.82,2052.19 1106.15,2026.86 1118.5,2001.5C 1117.5,2001.17 1116.5,2000.83 1115.5,2000.5C 1018.01,2011.37 921.342,2006.54 825.5,1986C 652.227,1946.19 518.06,1851.69 423,1702.5C 349.245,1587.83 319.912,1462.5 335,1326.5C 344.821,1244.55 366.488,1165.88 400,1090.5C 461.748,952.83 547.248,831.997 656.5,728C 668,717.833 679.5,707.667 691,697.5C 681.779,635.465 702.946,586.965 754.5,552C 760.186,548.966 765.853,545.966 771.5,543C 749.409,513.487 727.076,484.154 704.5,455C 718.054,444.73 731.387,434.23 744.5,423.5C 724.445,397.124 704.445,370.791 684.5,344.5C 665.191,318.852 645.858,293.185 626.5,267.5C 625.998,266.479 625.332,266.312 624.5,267C 620.168,271.643 615.168,274.977 609.5,277C 592.636,254.648 575.636,232.482 558.5,210.5C 554.832,205.993 551.332,201.327 548,196.5C 547.493,195.004 547.993,193.837 549.5,193C 615.025,143.308 680.692,93.8078 746.5,44.5C 748.149,45.6477 749.649,46.981 751,48.5C 765.176,67.5297 779.342,86.5297 793.5,105.5 Z"/></g>
<g><path style="opacity:1" fill="#dad671" d="M 1732.5,2071.5 C 1730.38,2070.97 1728.88,2069.64 1728,2067.5C 1696.16,2018.47 1664.32,1969.47 1632.5,1920.5C 1635.59,1919.26 1638.59,1917.76 1641.5,1916C 1850.76,1766.79 1979.26,1565.29 2027,1311.5C 2065.16,1064.26 2014.5,837.595 1875,631.5C 1747.46,452.347 1577.96,331.847 1366.5,270C 1231.35,233.855 1094.69,227.188 956.5,250C 935.132,253.761 914.132,258.594 893.5,264.5C 861.863,223.351 830.363,182.018 799,140.5C 798.018,139.241 797.685,137.908 798,136.5C 801.862,133.633 805.362,130.466 808.5,127C 803.373,119.909 798.373,112.742 793.5,105.5C 985.792,48.1981 1179.79,42.0314 1375.5,87C 1642.04,154.62 1855.87,299.453 2017,521.5C 2173.06,746.583 2238.4,996.583 2213,1271.5C 2181.83,1541.06 2069.33,1769.39 1875.5,1956.5C 1830.59,1998.43 1782.92,2036.76 1732.5,2071.5 Z"/></g>
<g><path style="opacity:1" fill="#dad671" d="M 558.5,210.5 C 575.636,232.482 592.636,254.648 609.5,277C 615.168,274.977 620.168,271.643 624.5,267C 625.332,266.312 625.998,266.479 626.5,267.5C 645.858,293.185 665.191,318.852 684.5,344.5C 503.502,443.332 369.002,585.998 281,772.5C 195.264,963.674 175.264,1161.67 221,1366.5C 277.693,1595.08 401.526,1777.58 592.5,1914C 739.271,2015.64 902.271,2070.14 1081.5,2077.5C 1069.85,2101.47 1058.18,2125.47 1046.5,2149.5C 1028.18,2150.5 1009.85,2150.83 991.5,2150.5C 991.832,2184 991.498,2217.34 990.5,2250.5C 727.546,2216.77 504.379,2105.44 321,1916.5C 139.968,1722.64 39.6343,1492.3 20,1225.5C 6.12491,950.062 81.6249,703.396 246.5,485.5C 333.06,373.934 437.06,282.267 558.5,210.5 Z"/></g>
<g><path style="opacity:1" fill="#bfbc48" d="M 1632.5,1920.5 C 1621.38,1903.76 1610.38,1886.93 1599.5,1870C 1670.77,1806.91 1701.6,1727.74 1692,1632.5C 1770.02,1605.33 1848.18,1578.66 1926.5,1552.5C 1915.97,1521.57 1905.64,1490.57 1895.5,1459.5C 1603.48,1558.84 1311.81,1659.17 1020.5,1760.5C 1025.98,1774.59 1030.64,1788.93 1034.5,1803.5C 940.244,1798.27 852.911,1771.11 772.5,1722C 661.795,1649.91 589.628,1549.74 556,1421.5C 519.666,1245.88 547.999,1081.54 641,928.5C 674.094,875.558 714.928,829.225 763.5,789.5C 778.362,796.937 794.029,801.604 810.5,803.5C 695.575,908.319 642.408,1038.99 651,1195.5C 667.55,1350.21 740.383,1470.04 869.5,1555C 992.633,1628.85 1123.3,1645.19 1261.5,1604C 1403.28,1554.89 1502.11,1460.72 1558,1321.5C 1606.97,1180.72 1594.63,1045.72 1521,916.5C 1467.85,829.857 1394.69,766.357 1301.5,726C 1300.75,725.329 1300.41,724.496 1300.5,723.5C 1300.92,722.778 1301.58,722.278 1302.5,722C 1187.38,569.216 1071.88,416.716 956,264.5C 942.691,274.308 929.525,284.308 916.5,294.5C 908.074,285.075 900.407,275.075 893.5,264.5C 914.132,258.594 935.132,253.761 956.5,250C 1094.69,227.188 1231.35,233.855 1366.5,270C 1577.96,331.847 1747.46,452.347 1875,631.5C 2014.5,837.595 2065.16,1064.26 2027,1311.5C 1979.26,1565.29 1850.76,1766.79 1641.5,1916C 1638.59,1917.76 1635.59,1919.26 1632.5,1920.5 Z"/></g>
<g><path style="opacity:1" fill="#bfbc48" d="M 684.5,344.5 C 704.445,370.791 724.445,397.124 744.5,423.5C 731.387,434.23 718.054,444.73 704.5,455C 727.076,484.154 749.409,513.487 771.5,543C 765.853,545.966 760.186,548.966 754.5,552C 702.946,586.965 681.779,635.465 691,697.5C 679.5,707.667 668,717.833 656.5,728C 547.248,831.997 461.748,952.83 400,1090.5C 366.488,1165.88 344.821,1244.55 335,1326.5C 319.912,1462.5 349.245,1587.83 423,1702.5C 518.06,1851.69 652.227,1946.19 825.5,1986C 921.342,2006.54 1018.01,2011.37 1115.5,2000.5C 1116.5,2000.83 1117.5,2001.17 1118.5,2001.5C 1106.15,2026.86 1093.82,2052.19 1081.5,2077.5C 902.271,2070.14 739.271,2015.64 592.5,1914C 401.526,1777.58 277.693,1595.08 221,1366.5C 175.264,1161.67 195.264,963.674 281,772.5C 369.002,585.998 503.502,443.332 684.5,344.5 Z"/></g>
<g><path style="opacity:1" fill="#dad672" d="M 1300.5,723.5 C 1300.41,724.496 1300.75,725.329 1301.5,726C 1394.69,766.357 1467.85,829.857 1521,916.5C 1594.63,1045.72 1606.97,1180.72 1558,1321.5C 1502.11,1460.72 1403.28,1554.89 1261.5,1604C 1123.3,1645.19 992.633,1628.85 869.5,1555C 740.383,1470.04 667.55,1350.21 651,1195.5C 642.408,1038.99 695.575,908.319 810.5,803.5C 858.409,807.151 898.076,790.984 929.5,755C 930.167,754.333 930.833,754.333 931.5,755C 970.833,807 1010.17,859 1049.5,911C 1050.5,911.667 1051.5,911.667 1052.5,911C 1065.42,901.288 1078.26,891.455 1091,881.5C 1136,941.167 1181,1000.83 1226,1060.5C 1229.04,1063.93 1232.54,1066.77 1236.5,1069C 1250.42,1075.2 1264.75,1076.2 1279.5,1072C 1312.5,1063 1341.5,1047 1366.5,1024C 1383.29,1008.92 1395.46,990.753 1403,969.5C 1406.85,954.963 1404.52,941.63 1396,929.5C 1351.01,870.858 1306.51,811.858 1262.5,752.5C 1275.16,742.836 1287.82,733.169 1300.5,723.5 Z"/></g>
<g><path style="opacity:0.386" fill="#d6d275" d="M 1051.5,2256.5 C 1094.83,2255.17 1138.17,2255.17 1181.5,2256.5C 1138.17,2257.8 1094.83,2257.8 1051.5,2256.5 Z"/></g>
</svg>
